<mxfile host="Electron" agent="Mozilla/5.0 (Macintosh; Intel Mac OS X 10_15_7) AppleWebKit/537.36 (KHTML, like Gecko) draw.io/26.2.2 Chrome/134.0.6998.178 Electron/35.1.2 Safari/537.36" version="26.2.2">
  <diagram name="Page-1" id="NXVP6vQFJtQhCDMGcqxM">
    <mxGraphModel dx="2038" dy="1116" grid="1" gridSize="10" guides="1" tooltips="1" connect="1" arrows="1" fold="1" page="1" pageScale="1" pageWidth="1169" pageHeight="827" math="0" shadow="0">
      <root>
        <mxCell id="0" />
        <mxCell id="1" parent="0" />
        <mxCell id="g7GIkMN_8LZaWo3lRTaX-12" style="edgeStyle=orthogonalEdgeStyle;rounded=0;orthogonalLoop=1;jettySize=auto;html=1;entryX=0.5;entryY=0;entryDx=0;entryDy=0;fontSize=14;" edge="1" parent="1" source="g7GIkMN_8LZaWo3lRTaX-1" target="g7GIkMN_8LZaWo3lRTaX-3">
          <mxGeometry relative="1" as="geometry" />
        </mxCell>
        <mxCell id="g7GIkMN_8LZaWo3lRTaX-1" value="Початок" style="ellipse;whiteSpace=wrap;html=1;fontSize=14;" vertex="1" parent="1">
          <mxGeometry x="500" y="20" width="120" height="40" as="geometry" />
        </mxCell>
        <mxCell id="g7GIkMN_8LZaWo3lRTaX-13" style="edgeStyle=orthogonalEdgeStyle;rounded=0;orthogonalLoop=1;jettySize=auto;html=1;exitX=0.5;exitY=1;exitDx=0;exitDy=0;fontSize=14;" edge="1" parent="1" source="g7GIkMN_8LZaWo3lRTaX-3" target="g7GIkMN_8LZaWo3lRTaX-4">
          <mxGeometry relative="1" as="geometry" />
        </mxCell>
        <mxCell id="g7GIkMN_8LZaWo3lRTaX-3" value="Перемістити в x=0, y=0" style="rounded=0;whiteSpace=wrap;html=1;fontSize=14;" vertex="1" parent="1">
          <mxGeometry x="495" y="80" width="130" height="40" as="geometry" />
        </mxCell>
        <mxCell id="g7GIkMN_8LZaWo3lRTaX-14" style="edgeStyle=orthogonalEdgeStyle;rounded=0;orthogonalLoop=1;jettySize=auto;html=1;exitX=0.5;exitY=1;exitDx=0;exitDy=0;fontSize=14;" edge="1" parent="1" source="g7GIkMN_8LZaWo3lRTaX-4" target="g7GIkMN_8LZaWo3lRTaX-5">
          <mxGeometry relative="1" as="geometry" />
        </mxCell>
        <mxCell id="g7GIkMN_8LZaWo3lRTaX-4" value="Повернути в напрямку 90" style="rounded=0;whiteSpace=wrap;html=1;fontSize=14;" vertex="1" parent="1">
          <mxGeometry x="495" y="140" width="130" height="40" as="geometry" />
        </mxCell>
        <mxCell id="g7GIkMN_8LZaWo3lRTaX-9" style="edgeStyle=orthogonalEdgeStyle;rounded=0;orthogonalLoop=1;jettySize=auto;html=1;exitX=1;exitY=0.5;exitDx=0;exitDy=0;entryX=0.5;entryY=0;entryDx=0;entryDy=0;fontSize=14;" edge="1" parent="1" source="g7GIkMN_8LZaWo3lRTaX-5" target="g7GIkMN_8LZaWo3lRTaX-7">
          <mxGeometry relative="1" as="geometry" />
        </mxCell>
        <mxCell id="g7GIkMN_8LZaWo3lRTaX-26" value="Так" style="edgeLabel;html=1;align=center;verticalAlign=middle;resizable=0;points=[];fontSize=14;" vertex="1" connectable="0" parent="g7GIkMN_8LZaWo3lRTaX-9">
          <mxGeometry x="-0.52" relative="1" as="geometry">
            <mxPoint x="-26" y="-10" as="offset" />
          </mxGeometry>
        </mxCell>
        <mxCell id="g7GIkMN_8LZaWo3lRTaX-23" style="edgeStyle=orthogonalEdgeStyle;rounded=0;orthogonalLoop=1;jettySize=auto;html=1;entryX=0.5;entryY=0;entryDx=0;entryDy=0;exitX=0;exitY=0.5;exitDx=0;exitDy=0;fontSize=14;" edge="1" parent="1" source="g7GIkMN_8LZaWo3lRTaX-5" target="g7GIkMN_8LZaWo3lRTaX-6">
          <mxGeometry relative="1" as="geometry">
            <Array as="points">
              <mxPoint x="430" y="260" />
              <mxPoint x="430" y="340" />
              <mxPoint x="560" y="340" />
            </Array>
          </mxGeometry>
        </mxCell>
        <mxCell id="g7GIkMN_8LZaWo3lRTaX-27" value="Ні" style="edgeLabel;html=1;align=center;verticalAlign=middle;resizable=0;points=[];fontSize=14;" vertex="1" connectable="0" parent="g7GIkMN_8LZaWo3lRTaX-23">
          <mxGeometry x="-0.8145" y="-1" relative="1" as="geometry">
            <mxPoint x="17" y="-9" as="offset" />
          </mxGeometry>
        </mxCell>
        <mxCell id="g7GIkMN_8LZaWo3lRTaX-5" value="Клавішу&lt;br&gt;&quot;Стрілка вправо&quot; натиснута?" style="rhombus;whiteSpace=wrap;html=1;fontSize=14;" vertex="1" parent="1">
          <mxGeometry x="485" y="220" width="150" height="80" as="geometry" />
        </mxCell>
        <mxCell id="g7GIkMN_8LZaWo3lRTaX-11" style="edgeStyle=orthogonalEdgeStyle;rounded=0;orthogonalLoop=1;jettySize=auto;html=1;fontSize=14;entryX=0.5;entryY=0;entryDx=0;entryDy=0;" edge="1" parent="1" source="g7GIkMN_8LZaWo3lRTaX-6" target="g7GIkMN_8LZaWo3lRTaX-8">
          <mxGeometry relative="1" as="geometry">
            <Array as="points">
              <mxPoint x="785" y="400" />
            </Array>
          </mxGeometry>
        </mxCell>
        <mxCell id="g7GIkMN_8LZaWo3lRTaX-28" value="Так" style="edgeLabel;html=1;align=center;verticalAlign=middle;resizable=0;points=[];fontSize=14;" vertex="1" connectable="0" parent="g7GIkMN_8LZaWo3lRTaX-11">
          <mxGeometry x="-0.4" y="1" relative="1" as="geometry">
            <mxPoint x="-36" y="-9" as="offset" />
          </mxGeometry>
        </mxCell>
        <mxCell id="g7GIkMN_8LZaWo3lRTaX-24" style="edgeStyle=orthogonalEdgeStyle;rounded=0;orthogonalLoop=1;jettySize=auto;html=1;entryX=0.5;entryY=0;entryDx=0;entryDy=0;exitX=0;exitY=0.5;exitDx=0;exitDy=0;fontSize=14;" edge="1" parent="1" source="g7GIkMN_8LZaWo3lRTaX-6" target="g7GIkMN_8LZaWo3lRTaX-16">
          <mxGeometry relative="1" as="geometry">
            <mxPoint x="475" y="460" as="sourcePoint" />
            <mxPoint x="550" y="620" as="targetPoint" />
            <Array as="points">
              <mxPoint x="430" y="400" />
              <mxPoint x="430" y="480" />
              <mxPoint x="560" y="480" />
            </Array>
          </mxGeometry>
        </mxCell>
        <mxCell id="g7GIkMN_8LZaWo3lRTaX-29" value="Ні" style="edgeLabel;html=1;align=center;verticalAlign=middle;resizable=0;points=[];fontSize=14;" vertex="1" connectable="0" parent="g7GIkMN_8LZaWo3lRTaX-24">
          <mxGeometry x="-0.7971" y="-2" relative="1" as="geometry">
            <mxPoint x="20" y="-8" as="offset" />
          </mxGeometry>
        </mxCell>
        <mxCell id="g7GIkMN_8LZaWo3lRTaX-6" value="Клавішу&lt;br&gt;&quot;Стрілка вліво&quot; натиснута?" style="rhombus;whiteSpace=wrap;html=1;fontSize=14;" vertex="1" parent="1">
          <mxGeometry x="485" y="360" width="150" height="80" as="geometry" />
        </mxCell>
        <mxCell id="g7GIkMN_8LZaWo3lRTaX-10" style="edgeStyle=orthogonalEdgeStyle;rounded=0;orthogonalLoop=1;jettySize=auto;html=1;exitX=0.5;exitY=1;exitDx=0;exitDy=0;entryX=0.5;entryY=0;entryDx=0;entryDy=0;fontSize=14;" edge="1" parent="1" source="g7GIkMN_8LZaWo3lRTaX-7" target="g7GIkMN_8LZaWo3lRTaX-6">
          <mxGeometry relative="1" as="geometry">
            <Array as="points">
              <mxPoint x="785" y="340" />
              <mxPoint x="560" y="340" />
            </Array>
          </mxGeometry>
        </mxCell>
        <mxCell id="g7GIkMN_8LZaWo3lRTaX-7" value="Повернути в напрямку 90" style="rounded=0;whiteSpace=wrap;html=1;fontSize=14;" vertex="1" parent="1">
          <mxGeometry x="720" y="280" width="130" height="40" as="geometry" />
        </mxCell>
        <mxCell id="g7GIkMN_8LZaWo3lRTaX-22" style="edgeStyle=orthogonalEdgeStyle;rounded=0;orthogonalLoop=1;jettySize=auto;html=1;exitX=0.5;exitY=1;exitDx=0;exitDy=0;entryX=0.5;entryY=0;entryDx=0;entryDy=0;fontSize=14;" edge="1" parent="1" source="g7GIkMN_8LZaWo3lRTaX-8" target="g7GIkMN_8LZaWo3lRTaX-16">
          <mxGeometry relative="1" as="geometry" />
        </mxCell>
        <mxCell id="g7GIkMN_8LZaWo3lRTaX-8" value="Повернути в напрямку -90" style="rounded=0;whiteSpace=wrap;html=1;fontSize=14;" vertex="1" parent="1">
          <mxGeometry x="720" y="420" width="130" height="40" as="geometry" />
        </mxCell>
        <mxCell id="g7GIkMN_8LZaWo3lRTaX-15" style="edgeStyle=orthogonalEdgeStyle;rounded=0;orthogonalLoop=1;jettySize=auto;html=1;fontSize=14;entryX=0.5;entryY=0;entryDx=0;entryDy=0;" edge="1" parent="1" source="g7GIkMN_8LZaWo3lRTaX-16" target="g7GIkMN_8LZaWo3lRTaX-17">
          <mxGeometry relative="1" as="geometry">
            <Array as="points">
              <mxPoint x="785" y="540" />
            </Array>
          </mxGeometry>
        </mxCell>
        <mxCell id="g7GIkMN_8LZaWo3lRTaX-31" value="Так" style="edgeLabel;html=1;align=center;verticalAlign=middle;resizable=0;points=[];fontSize=14;" vertex="1" connectable="0" parent="g7GIkMN_8LZaWo3lRTaX-15">
          <mxGeometry x="0.32" y="3" relative="1" as="geometry">
            <mxPoint x="-97" y="-7" as="offset" />
          </mxGeometry>
        </mxCell>
        <mxCell id="g7GIkMN_8LZaWo3lRTaX-33" style="edgeStyle=orthogonalEdgeStyle;rounded=0;orthogonalLoop=1;jettySize=auto;html=1;exitX=0;exitY=0.5;exitDx=0;exitDy=0;entryX=0.5;entryY=0;entryDx=0;entryDy=0;fontSize=14;" edge="1" parent="1" source="g7GIkMN_8LZaWo3lRTaX-16" target="g7GIkMN_8LZaWo3lRTaX-19">
          <mxGeometry relative="1" as="geometry">
            <Array as="points">
              <mxPoint x="430" y="540" />
              <mxPoint x="430" y="620" />
              <mxPoint x="560" y="620" />
            </Array>
          </mxGeometry>
        </mxCell>
        <mxCell id="g7GIkMN_8LZaWo3lRTaX-34" value="Ні" style="edgeLabel;html=1;align=center;verticalAlign=middle;resizable=0;points=[];fontSize=14;" vertex="1" connectable="0" parent="g7GIkMN_8LZaWo3lRTaX-33">
          <mxGeometry x="-0.8925" y="1" relative="1" as="geometry">
            <mxPoint y="-11" as="offset" />
          </mxGeometry>
        </mxCell>
        <mxCell id="g7GIkMN_8LZaWo3lRTaX-16" value="Клавішу&lt;br&gt;&quot;Стрілка вгору&quot; натиснута?" style="rhombus;whiteSpace=wrap;html=1;fontSize=14;" vertex="1" parent="1">
          <mxGeometry x="485" y="500" width="150" height="80" as="geometry" />
        </mxCell>
        <mxCell id="g7GIkMN_8LZaWo3lRTaX-21" style="edgeStyle=orthogonalEdgeStyle;rounded=0;orthogonalLoop=1;jettySize=auto;html=1;exitX=0.5;exitY=1;exitDx=0;exitDy=0;entryX=0.5;entryY=0;entryDx=0;entryDy=0;fontSize=14;" edge="1" parent="1" source="g7GIkMN_8LZaWo3lRTaX-17" target="g7GIkMN_8LZaWo3lRTaX-19">
          <mxGeometry relative="1" as="geometry" />
        </mxCell>
        <mxCell id="g7GIkMN_8LZaWo3lRTaX-17" value="Повернути в напрямку 0" style="rounded=0;whiteSpace=wrap;html=1;fontSize=14;" vertex="1" parent="1">
          <mxGeometry x="720" y="560" width="130" height="40" as="geometry" />
        </mxCell>
        <mxCell id="g7GIkMN_8LZaWo3lRTaX-18" style="edgeStyle=orthogonalEdgeStyle;rounded=0;orthogonalLoop=1;jettySize=auto;html=1;fontSize=14;entryX=0.5;entryY=0;entryDx=0;entryDy=0;" edge="1" parent="1" source="g7GIkMN_8LZaWo3lRTaX-19" target="g7GIkMN_8LZaWo3lRTaX-20">
          <mxGeometry relative="1" as="geometry" />
        </mxCell>
        <mxCell id="g7GIkMN_8LZaWo3lRTaX-39" value="Так" style="edgeLabel;html=1;align=center;verticalAlign=middle;resizable=0;points=[];fontSize=14;" vertex="1" connectable="0" parent="g7GIkMN_8LZaWo3lRTaX-18">
          <mxGeometry x="-0.64" y="2" relative="1" as="geometry">
            <mxPoint x="-16" y="-8" as="offset" />
          </mxGeometry>
        </mxCell>
        <mxCell id="g7GIkMN_8LZaWo3lRTaX-37" style="edgeStyle=orthogonalEdgeStyle;rounded=0;orthogonalLoop=1;jettySize=auto;html=1;entryX=0.5;entryY=0;entryDx=0;entryDy=0;fontSize=14;exitX=0;exitY=0.5;exitDx=0;exitDy=0;" edge="1" parent="1" source="g7GIkMN_8LZaWo3lRTaX-19" target="g7GIkMN_8LZaWo3lRTaX-35">
          <mxGeometry relative="1" as="geometry">
            <Array as="points">
              <mxPoint x="430" y="680" />
              <mxPoint x="430" y="760" />
              <mxPoint x="560" y="760" />
            </Array>
          </mxGeometry>
        </mxCell>
        <mxCell id="g7GIkMN_8LZaWo3lRTaX-38" value="Ні" style="edgeLabel;html=1;align=center;verticalAlign=middle;resizable=0;points=[];fontSize=14;" vertex="1" connectable="0" parent="g7GIkMN_8LZaWo3lRTaX-37">
          <mxGeometry x="-0.8222" relative="1" as="geometry">
            <mxPoint x="20" y="-10" as="offset" />
          </mxGeometry>
        </mxCell>
        <mxCell id="g7GIkMN_8LZaWo3lRTaX-19" value="Клавішу&lt;br&gt;&quot;Стрілка вниз&quot; натиснута?" style="rhombus;whiteSpace=wrap;html=1;fontSize=14;" vertex="1" parent="1">
          <mxGeometry x="485" y="640" width="150" height="80" as="geometry" />
        </mxCell>
        <mxCell id="g7GIkMN_8LZaWo3lRTaX-25" style="edgeStyle=orthogonalEdgeStyle;rounded=0;orthogonalLoop=1;jettySize=auto;html=1;exitX=1;exitY=0.5;exitDx=0;exitDy=0;fontSize=14;" edge="1" parent="1" source="g7GIkMN_8LZaWo3lRTaX-35">
          <mxGeometry relative="1" as="geometry">
            <mxPoint x="560" y="200" as="targetPoint" />
            <Array as="points">
              <mxPoint x="990" y="800" />
              <mxPoint x="990" y="200" />
            </Array>
          </mxGeometry>
        </mxCell>
        <mxCell id="g7GIkMN_8LZaWo3lRTaX-36" style="edgeStyle=orthogonalEdgeStyle;rounded=0;orthogonalLoop=1;jettySize=auto;html=1;exitX=0.5;exitY=1;exitDx=0;exitDy=0;entryX=0.5;entryY=0;entryDx=0;entryDy=0;fontSize=14;" edge="1" parent="1" source="g7GIkMN_8LZaWo3lRTaX-20" target="g7GIkMN_8LZaWo3lRTaX-35">
          <mxGeometry relative="1" as="geometry">
            <Array as="points">
              <mxPoint x="785" y="760" />
              <mxPoint x="560" y="760" />
            </Array>
          </mxGeometry>
        </mxCell>
        <mxCell id="g7GIkMN_8LZaWo3lRTaX-20" value="Повернути в напрямку 180" style="rounded=0;whiteSpace=wrap;html=1;fontSize=14;" vertex="1" parent="1">
          <mxGeometry x="720" y="700" width="130" height="40" as="geometry" />
        </mxCell>
        <mxCell id="g7GIkMN_8LZaWo3lRTaX-35" value="Перемістити на 10 кроків" style="rounded=0;whiteSpace=wrap;html=1;fontSize=14;" vertex="1" parent="1">
          <mxGeometry x="495" y="780" width="130" height="40" as="geometry" />
        </mxCell>
      </root>
    </mxGraphModel>
  </diagram>
</mxfile>
